<?xml version="1.0" encoding="utf-8"?>
<!-- Generator: Adobe Illustrator 19.0.0, SVG Export Plug-In . SVG Version: 6.00 Build 0)  -->
<svg version="1.1" id="Layer_1" xmlns="http://www.w3.org/2000/svg" xmlns:xlink="http://www.w3.org/1999/xlink" x="0px" y="0px"
	 width="108.7px" height="98px" viewBox="0 0 108.7 98" style="enable-background:new 0 0 108.7 98;" xml:space="preserve">
<style type="text/css">
	.st0{fill:#0068FF;}
	.st1{fill:#008CFF;}
</style>
<g id="XMLID_25_">
	<path id="XMLID_26_" class="st0" d="M66.2,89.1L100.7,51c5.6-6.1,5.1-15.6-1-21.2l0,0c-6.1-5.6-15.6-5.1-21.2,1L44,68.9
		c-5.6,6.1-5.1,15.6,1,21.2l0,0C51.1,95.7,60.6,95.2,66.2,89.1z"/>
</g>
<g id="XMLID_24_">
	<path id="XMLID_23_" class="st1" d="M43.8,89.1L9.3,51c-5.6-6.1-5.1-15.6,1-21.2l0,0c6.1-5.6,15.6-5.1,21.2,1L66,68.9
		c5.6,6.1,5.1,15.6-1,21.2l0,0C58.9,95.7,49.4,95.2,43.8,89.1z"/>
</g>
<g id="XMLID_20_">
	<path id="XMLID_66_" class="st1" d="M54.7,36.8L54.7,36.8c-8.3,0-15-6.7-15-15v0c0-8.3,6.7-15,15-15h0c8.3,0,15,6.7,15,15v0
		C69.7,30.1,63,36.8,54.7,36.8z"/>
</g>
</svg>
