<?xml version="1.0" encoding="utf-8"?>
<!-- Generator: Adobe Illustrator 19.0.0, SVG Export Plug-In . SVG Version: 6.00 Build 0)  -->
<svg version="1.1" id="Layer_1" xmlns="http://www.w3.org/2000/svg" xmlns:xlink="http://www.w3.org/1999/xlink" x="0px" y="0px"
	 width="183px" height="163.6px" viewBox="0 0 183 163.6" style="enable-background:new 0 0 183 163.6;" xml:space="preserve">
<style type="text/css">
	.st0{fill:#F4F4F4;}
	.st1{fill:#FFFFFF;}
</style>
<g id="XMLID_25_">
	<path id="XMLID_26_" class="st0" d="M102.4,120.5l34.5-38.1c5.6-6.1,5.1-15.6-1-21.2l0,0c-6.1-5.6-15.6-5.1-21.2,1l-34.5,38.1
		c-5.6,6.1-5.1,15.6,1,21.2l0,0C87.3,127.1,96.8,126.6,102.4,120.5z"/>
</g>
<g id="XMLID_24_">
	<path id="XMLID_23_" class="st1" d="M80,120.5L45.5,82.4c-5.6-6.1-5.1-15.6,1-21.2l0,0c6.1-5.6,15.6-5.1,21.2,1l34.5,38.1
		c5.6,6.1,5.1,15.6-1,21.2l0,0C95.1,127.1,85.6,126.6,80,120.5z"/>
</g>
<g id="XMLID_20_">
	<path id="XMLID_66_" class="st1" d="M90.9,68.2L90.9,68.2c-8.3,0-15-6.7-15-15l0,0c0-8.3,6.7-15,15-15l0,0c8.3,0,15,6.7,15,15l0,0
		C105.9,61.5,99.2,68.2,90.9,68.2z"/>
</g>
</svg>
